<svg width="400" height="300" xmlns="http://www.w3.org/2000/svg">

 <g>
  <title>background</title>
  <rect fill="none" id="canvas_background" height="302" width="402" y="-1" x="-1"/>
 </g>
 <g>
  <title>Layer 1</title>
  <path stroke="none" id="svg_1" d="m197.637803,5.991992l-0.626925,0.003061c-2.196725,0.010971 -4.433255,0.068641 -6.717053,0.187646c-2.786333,0.14517 -5.587593,-0.117307 -8.451048,-0.000425c-24.196319,0.987207 -46.817862,6.233782 -64.613077,13.669454c-9.903922,4.138128 -19.165992,7.239267 -27.42548,12.096876c-8.687389,5.107863 -16.819999,11.002238 -23.355443,17.602687c-16.272684,1.526102 -25.079487,11.647982 -32.980732,20.697345c-1.121997,1.287021 -2.671895,2.486899 -3.741647,3.811904c-1.564825,1.932765 -2.470383,4.176113 -3.980476,6.030674c-2.639056,3.246599 -5.6371,6.088769 -8.449058,9.375587c-5.680637,6.640668 -11.382171,17.517779 -12.2631,27.302263c-0.268682,0.189925 -0.479647,0.417835 -0.578662,0.665854c-0.128868,0.326224 -0.146034,0.645745 -0.160712,0.945156c-0.029605,0.598822 -0.041049,1.081455 -0.404267,1.443429l-0.126878,0.125127l-0.00199,0.169815c-0.055727,5.016252 -1.979317,9.869392 -1.740961,15.882191c0.084287,2.12269 0.684144,4.231974 0.745842,6.251881c0.24057,7.871829 0.840627,14.181804 3.265234,20.029257c3.208761,7.73553 6.922545,14.472277 11.243103,20.418044l0.022888,0.031282l0.02861,0.026813c7.22332,7.022753 16.530171,13.725984 31.216883,13.549466c2.017604,-0.024579 4.012817,-0.496039 5.950812,-0.446882c6.411054,0.160878 13.354497,3.519197 20.656183,3.572823c8.334122,0.062563 16.155757,-3.282349 20.765646,-7.737764c0.505023,-0.487102 0.758778,-1.074752 1.059802,-1.51493c0.067171,-0.098314 0.144292,-0.158643 0.211463,-0.239082c-1.674288,4.884422 -3.184381,10.640263 -3.582428,16.266509c-0.427901,6.057487 0.410487,11.938456 3.776477,16.270978c2.039994,2.623198 4.69945,3.957141 7.620124,5.481009c9.9288,5.228521 22.268276,8.937642 38.344423,7.887469c3.773989,-0.245785 5.425886,-1.452367 8.281878,-2.01097c2.781358,-0.558603 6.202079,-0.469226 9.453631,-1.117205c5.642325,-1.139549 13.252497,-3.910219 18.986871,-6.061956c2.36092,-0.884827 5.891105,-2.455617 8.749584,-3.816373c2.049945,-0.976437 4.015305,-2.343897 5.818958,-3.092424c0.900583,-0.375381 1.748922,-0.592119 2.53009,-0.56754s1.512581,0.272598 2.271359,0.909405c1.925555,1.619948 4.092427,4.526916 5.358716,7.009346c1.161801,2.267927 1.828531,5.083284 3.251551,7.407071c1.365801,2.212067 3.729208,4.178348 6.704614,5.317897l-0.024878,0.044688l0.472682,0.156409s2.731602,0.916108 4.443206,1.094861c0.8359,0.089376 2.206676,0.022344 3.450575,-0.022344c0.962778,-0.044688 1.539947,-0.089376 1.86336,-0.111721c7.702221,14.724766 20.730817,24.667893 35.202335,33.203342c8.159976,5.98822 15.026297,13.227711 23.111639,19.417028l0.895607,0.692667l-0.074634,-1.072517c-0.049756,-0.893764 -0.621949,-1.608776 -1.268777,-2.167378s-1.368289,-1.027829 -1.84097,-1.452367c-8.48339,-7.61934 -16.917023,-15.663218 -27.440407,-21.271589c-7.503197,-5.072112 -15.707954,-12.266914 -21.516961,-19.774534c-2.049945,-2.658949 -5.042766,-5.429618 -5.644813,-7.887469c-0.427901,-1.74284 -0.024878,-2.971766 0.890632,-3.887874c0.915509,-0.893764 2.408188,-1.519399 4.194427,-1.832217c0.283609,-0.067032 0.848339,0.089376 1.490191,0.111721c0.320926,0 0.681657,-0.022344 1.024973,-0.178753c0.343316,-0.178753 0.631901,-0.469226 0.828437,-0.87142l0.288585,-0.603291l-0.716486,-0.022344l-0.007463,0l0.007463,0c-0.002488,0 -0.019902,-0.022344 -0.07961,-0.044688c-0.131853,-0.089376 -0.457755,-0.223441 -0.781168,-0.178753l-0.007463,0.022344l-0.007463,0c-2.037506,0.37985 -4.259109,0.625635 -6.015494,1.452367c-1.689215,0.782044 -2.888333,2.212067 -2.836089,4.535854c-0.196536,0.111721 -0.457755,0.201097 -0.815998,0.245785c-0.430389,0.044688 -0.940387,0.067032 -1.44541,0.134065c-1.047363,0.044688 -2.141994,0.044688 -2.547505,0c-0.738876,-0.067032 -2.087262,-0.424538 -3.022674,-0.692667c-2.525114,-0.960797 -4.557645,-2.368475 -6.435932,-3.954907c-2.724138,-5.049768 -4.746718,-11.359744 -9.01329,-15.234212c-0.509998,-0.462523 -1.186679,-0.77534 -1.756385,-1.101564c-0.383121,-0.218972 -0.654291,-0.437944 -0.85829,-0.652448c9.538216,-4.167176 18.780384,-9.53423 27.631967,-13.598623c-0.301024,1.360756 -0.14678,2.493602 0.400535,3.39407c0.676681,1.11944 1.868336,1.863498 3.214234,2.437742c2.582334,1.101564 5.809007,1.669105 7.771879,2.71034c-0.81351,3.624214 -0.02239,6.488728 1.462825,8.94658c1.534971,2.536056 3.759062,4.667684 5.659739,6.931142c1.251362,1.497055 2.455456,3.061143 3.629697,4.357101c1.181704,1.318302 2.301213,2.390819 3.520233,2.927078c3.383405,1.497055 7.164857,0.558603 10.548262,-0.357506c-1.194143,2.547228 -2.935601,5.00508 -2.363408,8.289663c0.348292,2.078002 1.691702,3.508025 3.333649,4.580542c1.567312,1.050173 3.383405,1.787528 4.925839,2.591916c1.418045,6.904329 7.61266,13.227711 16.120928,12.870205c3.209259,-0.134065 5.871202,-1.295958 8.582901,-2.569572c0.323414,0.335162 0.522437,0.715011 0.646827,1.206582c0.149268,0.580947 0.199024,1.273614 0.49756,1.966281c0.895607,2.212067 2.612187,4.066627 4.030232,5.898844c0.646827,0.87142 1.243899,2.01097 2.039994,2.99411c0.771217,0.983141 1.791214,1.876905 3.259015,2.12269l1.144387,0.178753l-0.646827,-0.87142c-2.388286,-3.284584 -6.841443,-7.12777 -8.085342,-11.484871c2.612187,1.608776 6.244372,2.815357 10.349238,3.440992c4.677059,0.715011 9.876556,0.737356 14.603371,-0.201097c4.42828,-0.893764 9.304363,-2.927078 14.031178,-4.960392c5.050229,-2.167378 10.000946,-3.999595 12.613133,-7.060738c2.33853,-2.725981 3.55755,-6.814952 5.199497,-9.094051c2.363408,-1.228926 5.547788,-2.301443 8.010708,-3.999595c2.413164,-1.63112 4.079988,-3.999595 3.358527,-7.462931c2.288774,-0.960797 3.259015,-2.725981 3.831208,-4.669918c0.621949,-2.064595 0.895607,-4.388382 2.039994,-6.573636c0.646827,-1.208816 1.666824,-2.165144 2.239018,-3.367257c3.259015,-6.866344 0,-13.868987 -4.30389,-18.50092c0.895607,-0.992078 1.144387,-2.317084 0.970241,-3.583995c-0.174146,-1.235629 -0.696583,-2.40646 -1.418045,-3.273412c1.243899,-0.978672 2.189262,-1.984157 2.562431,-3.54601c0.422926,-1.932765 0.12439,-3.58176 -0.721461,-4.942516s-2.189262,-2.42657 -3.756574,-3.291287c-2.413164,-1.340646 -5.323887,-2.153972 -8.010708,-2.844405c5.547788,-0.60776 10.622895,-1.481414 16.09605,-2.652245c5.473155,-1.1753 12.389232,-2.319318 15.897026,-5.481009c3.831208,-3.445461 6.14486,-10.894986 6.368762,-16.831815c0.398048,-10.539715 -1.84097,-20.482842 -5.000473,-28.099948c-3.010235,-7.188099 -5.871202,-14.099131 -8.980949,-20.572218c-1.641946,-3.447696 -2.761455,-7.212677 -5.597544,-9.536464l-0.099512,-0.09608l-0.149268,-0.017875c-1.044875,-0.125127 -2.015116,-0.326224 -2.960479,-0.549665c0.970241,-3.12594 0.273658,-5.816171 -1.144387,-8.2271c-1.467801,-2.527118 -3.68194,-4.788342 -5.522911,-7.123301c-2.960479,-3.77392 -5.423399,-6.656309 -8.209732,-10.27382c-2.786333,-3.644324 -5.025351,-7.235022 -7.960952,-10.526308c-2.21414,-2.475727 -4.079988,-5.206177 -6.468274,-7.413774c-2.189262,-2.035548 -4.876083,-3.60187 -8.607779,-4.044283c0.895607,-1.047939 1.169265,-2.308146 0.970241,-3.523666c-0.24878,-1.485883 -1.094631,-2.920375 -2.064872,-4.010767c-3.234137,-3.554947 -8.607779,-6.435103 -13.309717,-9.25046c-4.826327,-2.898031 -9.528265,-5.44213 -15.523857,-7.419807c-5.597544,-1.8454 -11.66777,-3.307375 -17.663362,-5.142273c-3.283893,-1.002357 -7.339003,-2.447126 -11.369235,-3.343349c-3.731696,-0.827626 -7.438515,-1.185131 -10.598017,-0.240423c0.149268,-0.940463 0.223902,-1.918018 -0.422926,-2.734025l-0.049756,-0.042901l-0.049756,-0.034857c-2.736577,-2.10258 -6.717053,-3.001931 -10.996065,-3.514281c-4.30389,-0.51235 -8.90134,-0.627646 -12.886791,-1.057547l-0.037317,-0.003798l-0.037317,0.000894c-15.210394,0.374264 -28.549964,-1.760179 -43.665822,-1.745298l0.002488,-0.010904l-0.001244,0.000045zm-0.350779,1.307086c9.391436,-0.018322 19.454577,1.151392 27.818552,1.785741c13.381863,1.014869 28.734061,-0.335832 38.934031,4.129191c0.547315,1.166809 0.37317,1.940362 -0.149268,2.712798c-0.522437,0.806399 -1.467801,1.571014 -2.313652,2.482207l0.621949,0.679261c2.661943,-1.266017 4.328768,-3.058461 7.73705,-3.076337c1.343411,-0.00715 2.512676,0.602174 4.129744,0.885497c2.711699,0.483526 5.224375,0.599716 7.637538,1.325676c1.990238,0.598152 3.756574,1.935223 5.945836,2.675707c4.751693,1.59805 9.752166,2.305688 14.976541,3.587346c4.975595,1.21619 10.498506,4.56222 15.299955,7.102744c4.900961,2.596385 9.876556,5.543573 13.334595,8.644935c1.567312,1.398741 3.582428,3.338209 3.333649,6.231771c-1.368289,1.816576 -4.328768,2.433273 -6.741931,3.796264l-0.721461,0.413366l0.771217,0.361975c0.646827,0.30388 1.318533,0.312817 1.96536,0.176518s1.268777,-0.402194 1.890726,-0.674792c1.293655,-0.549665 2.661943,-1.135081 4.279012,-1.016657c2.761455,0.198863 5.050229,1.961813 7.139979,4.229739c2.08975,2.270161 3.905842,5.00508 5.721934,7.002643c4.030232,4.459884 8.035586,10.200084 11.891672,15.381683c1.268777,1.695918 2.885845,3.204145 4.254134,4.924641c1.194143,1.519399 2.836089,3.39407 4.254134,5.279912c1.393167,1.883608 2.587309,3.791795 2.860967,5.262037c0.398048,2.024376 0.049756,3.103596 -0.696583,3.881171c-0.721461,0.779809 -1.915604,1.284786 -3.259015,1.899249l-1.368289,0.623401l1.517556,0.216738c1.666824,0.236848 2.985357,-0.310583 4.129744,-0.601056s2.039994,-0.406663 3.358527,0.51168c0.995119,0.710543 2.164384,2.799716 3.159503,5.052002c1.019997,2.25452 1.890726,4.667684 2.661943,6.175911c1.990238,3.925859 3.905842,8.671748 5.199497,11.811094c2.487798,6.017268 4.726815,11.310586 5.970714,17.993709l-0.572193,-0.234613c-3.657062,-1.539509 -6.916077,-3.39407 -9.254607,-6.021737c-2.363408,-2.627667 -3.831208,-6.035143 -3.880964,-10.781031l0,-0.18769l-0.149268,-0.129596c-1.219021,-1.054642 -2.363408,-2.243348 -3.68194,-3.306928c-1.393167,-2.048955 -2.711699,-4.171645 -4.1795,-6.178145c-0.572193,-1.128377 -0.895607,-2.560635 -1.243899,-3.997361c-0.323414,-1.304896 -0.671705,-2.607557 -1.318533,-3.718059c0.447804,-0.366443 0.696583,-0.875889 0.820973,-1.398741c0.174146,-0.659151 0.223902,-1.378631 0.298536,-2.031079l0.024878,-0.292708l-0.273658,-0.145237c-5.77169,-2.929312 -10.299482,-6.734514 -11.195089,-13.958363l-0.049756,-0.330693l-0.348292,-0.060329c-2.239018,-0.375381 -4.254134,-1.157425 -5.597544,-2.379647s-2.039994,-2.868983 -1.71658,-5.165957l0.049756,-0.330693l-0.348292,-0.136299c-5.373643,-2.153972 -8.558023,-6.365836 -12.438988,-10.139755c-3.80633,-3.711356 -8.359,-6.951251 -16.22044,-7.080847c-0.696583,-2.413163 -2.562431,-3.787326 -4.279012,-5.08105c-1.766336,-1.333943 -3.383405,-2.589682 -3.80633,-4.96486c0.024878,-0.105017 0.049756,-0.156409 0.149268,-0.221207c0.12439,-0.07597 0.323414,-0.149706 0.572193,-0.236848s0.522437,-0.185456 0.796095,-0.395491c0.24878,-0.210035 0.447804,-0.558603 0.447804,-0.954093l0,-0.26366l-0.24878,-0.13183c-1.442923,-0.741824 -2.910723,-0.83567 -4.353646,-0.735121c-1.418045,0.102783 -2.811211,0.388787 -4.129744,0.453585c-13.857032,0.681495 -29.306255,-2.221004 -42.093534,-0.442413c-5.746812,0.799919 -11.070699,2.343897 -15.911953,3.966079c3.249064,-3.836483 6.35881,-7.907579 7.776855,-13.477965l0.12439,-0.522852l-0.572193,-0.022344c0,0.004469 -0.024878,0 -0.024878,0l0.024878,0c0,-0.004469 -0.024878,-0.017875 -0.099512,-0.058095c-0.12439,-0.082673 -0.447804,-0.210035 -0.771217,-0.160878l-0.398048,0.064798l0,0.241316c-0.049756,0.017875 -0.099512,0.031282 -0.199024,0.080439c-0.099512,0.073736 -0.24878,0.223441 -0.298536,0.402194l0.024878,-0.062563c-2.637065,6.079831 -7.906221,11.866955 -14.041129,16.577092c-8.600316,6.602683 -19.907356,13.953894 -33.978339,13.299212l-0.49756,-0.024579l-0.024878,0.449117c-0.390584,7.143411 -3.231649,12.005488 -7.22954,15.895597s-9.174997,6.792608 -14.19786,9.896205l-0.236341,0.147471l0.02239,0.256957c0.029854,0.317286 -0.014927,0.764168 -0.014927,1.206582c-0.002488,0.440179 0.002488,0.918343 0.398048,1.298193l0.221414,0.212269l0.305999,-0.09608c6.26925,-1.966281 11.157772,-5.492181 15.359662,-9.266101c4.341207,-3.896812 7.12754,-8.689623 10.19997,-13.596389c1.589703,-0.58765 3.634672,-1.543978 5.654764,-2.100346c1.967848,-0.545196 3.788916,-0.652448 5.124863,0.18769c-0.773705,3.874468 -3.425697,7.205974 -3.913306,10.894986l-0.057219,0.420069l0.46273,0.073736c0.639364,0.100548 1.206582,0.004469 1.636971,-0.241316c0.430389,-0.243551 0.71151,-0.60776 0.913022,-0.978672c0.403023,-0.741824 0.557267,-1.595369 0.728925,-1.943937c1.900677,-3.876702 4.624816,-6.569167 7.162369,-9.750968c5.525398,-6.924438 12.777328,-11.484871 22.168764,-15.042052c6.692175,-2.524884 15.349711,-4.39732 23.982368,-4.879953c5.149741,-0.288239 10.473628,0.312817 16.09605,0.670323c2.46292,0.156409 5.348765,-0.18769 7.911196,0.218972c4.254134,0.677026 11.443869,3.389601 14.976541,5.514525c2.562431,1.532806 4.378524,4.547026 4.005354,8.077394c-0.398048,3.878937 -3.333649,9.654888 -5.174619,13.026614c-2.288774,4.211864 -5.871202,7.681904 -7.463393,10.964253l-0.696583,1.405444l1.418045,-0.853545c5.025351,-3.027626 8.856559,-10.495027 11.866794,-16.268744c0.646827,-1.228926 1.069753,-2.927078 1.59219,-4.468821c0.522437,-1.543978 1.194143,-2.898031 1.990238,-3.396304c1.343411,-0.846842 2.935601,-0.728418 4.751693,-0.261426c1.741458,0.453585 3.607306,1.228926 5.398521,1.628885c3.482917,2.500305 5.249253,5.203942 8.856559,8.412556c0.920485,0.828966 2.288774,1.733903 3.482917,2.625432c1.219021,0.889295 2.288774,1.796466 2.637065,2.399757c0.174146,0.281536 0.223902,0.654682 0.24878,1.074752c0.049756,0.417835 0.049756,0.878123 0.223902,1.329474c1.293655,3.206379 4.577547,5.177129 7.73705,6.401586c0.37317,3.436524 1.940482,5.85639 3.980476,7.79139c2.039994,1.937234 4.478036,3.420883 6.667297,5.085519c-0.223902,9.929721 4.801449,15.290072 9.70241,20.494014c0.024878,0.822263 -0.074634,1.771888 0,2.661183c-3.059991,-1.758481 -6.841443,-2.725981 -10.423872,-2.703637c-4.005354,0.022344 -7.836562,1.278083 -10.125336,4.091206c-0.49756,0.614463 -1.268777,1.584197 -1.691702,2.656714c-0.422926,1.070283 -0.49756,2.337193 0.472682,3.275646l0.37317,0.337396l0.348292,-0.330693c0.796095,-0.712777 1.368289,-1.733903 1.990238,-2.703637s1.318533,-1.87467 2.164384,-2.372944c2.08975,-1.228926 5.970714,-1.646761 7.637538,-1.492586c5.099985,0.466992 8.831681,3.796264 12.762401,7.020518c3.905842,3.224255 8.060464,6.341257 13.931666,5.936829l0.870729,-0.058095c0.398048,2.352834 0.696583,4.879953 0.845851,7.677435c0.323414,6.482025 -0.049756,11.820032 -1.71658,16.369292c-1.691702,4.551494 -4.627303,7.027221 -8.682413,8.71867c-4.030232,1.691449 -9.179973,2.551697 -15.076053,3.720294c-11.468747,2.272396 -21.519449,2.422101 -33.510633,2.895796c-10.821919,0.426772 -20.474574,3.532603 -30.898445,4.920172c-9.553142,1.27138 -19.330187,1.771888 -28.808695,2.453383c-14.603371,1.052407 -27.281188,3.959376 -37.530913,9.444854c-3.318722,1.774122 -6.224469,3.876702 -9.451143,5.583792c-5.736861,3.03433 -11.655331,5.869797 -17.414583,8.937642c-5.754276,3.065611 -11.93894,5.624011 -17.889752,8.479588c-11.309528,5.427383 -23.148956,10.711764 -36.702477,12.70039c8.485877,-4.439774 13.894349,-11.585419 19.907356,-18.051803l-0.584632,-0.694902c-2.935601,1.168597 -4.468084,3.912453 -6.39364,5.925657c-4.895986,5.114566 -9.99597,10.117411 -17.49668,13.290274c-7.888806,3.351616 -22.671299,2.770669 -31.714443,-0.022344c-6.110031,-1.876905 -11.451332,-4.200692 -16.553805,-6.649606c-7.667392,-5.154785 -9.605386,-15.50681 -7.000662,-26.790583c1.350874,-5.847453 4.298914,-12.012191 6.453347,-18.049569c2.28131,-6.390414 5.177107,-11.882596 9.286948,-15.198461c4.199402,-2.015438 6.761834,-5.458665 11.339381,-7.319929c2.358432,-0.958562 5.065156,-1.034532 7.694758,-2.004266c3.32121,-1.224457 6.814077,-2.755028 9.170022,-5.054237c2.370871,0.706074 4.463109,0.563071 6.413542,0.017875c2.042482,-0.569775 3.958086,-1.530571 6.06525,-2.339428c5.090034,-1.95064 9.550655,-3.704653 14.225226,-6.053018c4.097403,-2.057892 7.667392,-3.686778 9.986019,-7.10766c1.29863,-0.031282 2.440529,-0.149706 3.430673,-0.49157c1.06229,-0.366443 1.957897,-0.987609 2.671895,-1.921593c0.636876,-0.833435 0.793607,-1.863498 1.077216,-2.317084c0.144292,-0.22791 0.208975,-0.281536 0.403023,-0.290473c0.196536,-0.011172 0.634388,0.093845 1.318533,0.496039l0.139317,0.080439l0.164195,-0.008938c14.451616,-0.811091 25.012316,-5.302256 30.087423,-14.686781c2.599748,1.309365 6.152323,1.892546 9.784508,1.850092c3.843647,-0.042454 7.73705,-0.806622 10.675139,-2.238879c0.599559,0.710543 1.141899,1.537274 1.79619,2.332725c-1.074729,1.282552 -2.246481,2.743856 -1.873312,5.425149l0.047268,0.348568l0.388096,0.040219c1.783751,0.185456 3.082381,-0.169815 4.015305,-0.842373c0.840876,-0.60776 1.35585,-1.436726 1.806141,-2.27463c1.617068,0.09608 2.860967,-0.183222 3.696867,-0.717246c0.898095,-0.572009 1.316045,-1.443429 1.166777,-2.265692c-0.149268,-0.820029 -0.850827,-1.548447 -1.940482,-1.899249c-0.990143,-0.317286 -2.311164,-0.319521 -3.905842,0.093845c-0.340828,-0.820029 -0.815998,-1.564087 -1.515069,-2.138331c8.097781,-5.451962 14.879517,-14.738172 12.665377,-27.235231c0.771217,-2.205363 0.995119,-5.034127 0.995119,-7.402602l-0.024878,-0.525086l-0.572193,0.087142c-0.522437,0.07597 -0.920485,0.312817 -1.219021,0.603291c-0.273658,0.292708 -0.447804,0.625635 -0.597071,0.945156c-0.223902,0.498274 -0.422926,0.900467 -0.671705,1.184238c-0.149268,-0.134065 -0.273658,-0.306114 -0.447804,-0.547431c-0.24878,-0.384319 -0.621949,-0.893764 -1.318533,-1.061345l-0.074634,-0.013406l-0.049756,0c-0.669218,-0.002234 -1.124484,0.216738 -1.470288,0.348568c-0.348292,0.129596 -0.599559,0.212269 -1.179216,0.107252l-1.348386,-0.243551l0.863266,0.960797c4.030232,4.479993 4.229256,12.950644 1.420532,18.985787c0.062195,-0.13183 -0.027366,-0.008938 -0.246292,0.089376c-0.216438,0.098314 -0.549803,0.196628 -0.741364,0.565306c-0.179121,0.346334 -0.092049,0.679261 -0.042293,0.873655c0.049756,0.196628 0.042293,0.245785 0.049756,0.230144c-2.084774,3.744872 -5.542813,7.521026 -10.050702,9.887267c-4.483011,2.3506 -9.990995,3.322569 -16.349805,1.532806c-0.616974,-0.547431 -1.156826,-1.235629 -1.868336,-1.85903c-0.741364,-0.647979 -1.706629,-1.204347 -3.082381,-1.316068l-0.410487,-0.033516l-0.111951,0.357506c-3.671989,11.567544 -17.262827,18.112132 -33.500681,15.100147l-0.796095,-0.147471l0.216438,0.703839c0.631901,2.055658 0.052244,3.18627 -1.146875,3.975016s-3.132137,1.159659 -5.119887,1.269145l-0.388096,0.02011l-0.069658,0.344099c-0.505023,2.451148 -2.472871,4.430836 -5.189546,6.144629s-6.154811,3.137112 -9.451143,4.475524c-2.450481,0.996547 -4.694474,1.930531 -7.207149,2.902499c-2.273847,0.880358 -4.557645,1.76295 -6.557834,1.984157c-2.000189,0.218972 -3.65955,-0.149706 -5.032814,-1.836686l-0.557267,-0.685964l-0.313462,0.799919c-1.243899,3.175097 -5.16218,5.3246 -9.747191,6.010565c-4.585011,0.68373 -9.762117,-0.109486 -13.354497,-2.638839c-2.313652,-1.628885 -4.545206,-4.533619 -6.162274,-7.744467c-1.617068,-3.208614 -2.627114,-6.72781 -2.602236,-9.549871c0.007463,-0.918343 0.49756,-1.975219 1.010046,-2.982938c0.509998,-1.007719 1.069753,-1.946172 0.977704,-2.868983c-0.089561,-0.882592 -0.758778,-1.356287 -1.201606,-1.644526c-0.221414,-0.145237 -0.388096,-0.26366 -0.465218,-0.35974c-0.07961,-0.093845 -0.111951,-0.15194 -0.07961,-0.348568l0.151756,-0.91164l-0.890632,0.458054c-1.634483,0.840138 -2.42809,2.364006 -2.975406,4.013001c-0.452779,-0.395491 -0.957802,-0.793216 -1.587215,-1.097096c-0.920485,-0.442413 -2.069848,-0.656917 -3.311259,-0.268129l-0.330877,0.102783l-0.004976,0.312817c-0.017415,1.396507 0.614486,2.334959 1.380728,3.01422c0.741364,0.661386 1.572288,1.130612 2.166872,1.70709c1.644434,3.751575 1.878287,7.988018 3.958086,12.219992c1.903165,3.878937 4.798961,7.402602 5.435838,10.622388c0.189073,0.945156 -0.012439,1.751778 -0.380633,2.603088c-0.345804,0.79545 -0.838388,1.635589 -1.251362,2.571807c-6.219494,2.860046 -15.533808,4.779404 -20.598964,8.939877c-0.532389,0.43571 -1.261313,1.108268 -1.741458,1.937234c-0.482633,0.828966 -0.709022,1.87467 -0.099512,2.853342l0.24878,0.402194l0.437852,-0.234613c0.985168,-0.522852 1.639459,-1.287021 2.256432,-2.031079c0.619462,-0.741824 1.206582,-1.468008 2.017604,-2.017673c1.034924,-0.697136 3.236625,-1.736137 5.107448,-2.397523c3.49038,-1.233395 8.023147,-3.154988 12.011086,-2.69023c-0.027366,0.136299 -0.082097,0.281536 -0.184097,0.446882c-0.181609,0.299411 -0.487608,0.632338 -0.853315,0.976437c-0.7339,0.68373 -1.689215,1.387569 -2.343505,2.138331c-4.684523,5.371523 -5.346277,13.513715 -8.757047,19.508639c-3.818769,6.712169 -13.043522,11.627873 -24.64661,10.928502c-5.609983,-0.337396 -10.585578,-2.898031 -16.66078,-3.351616c-3.634672,-0.270364 -7.177296,0.458054 -10.44875,0.223441c-6.194616,-0.442413 -10.936358,-2.388585 -15.469125,-4.191754c-7.887313,-4.439774 -13.452765,-10.984363 -17.941498,-18.554546c-2.343256,-6.913266 -6.860848,-13.620967 -7.422593,-21.740815c-0.354262,-5.121269 -0.50552,-10.278289 -0.665735,-15.567139c0.102746,0.399959 0.224399,0.81556 0.46696,1.266911c0.729671,1.356287 1.912868,2.372944 3.061235,3.309162s2.263398,1.796466 2.934357,2.763966c1.140158,1.648995 1.823058,3.919156 2.99904,5.789358c0.587867,0.933984 1.312064,1.774122 2.313652,2.357303c1.001836,0.580947 2.270862,0.882592 3.852852,0.777575l0.08359,-0.880358c-2.441276,-0.545196 -3.703335,-1.736137 -4.718606,-3.306928c-1.015519,-1.570791 -1.723546,-3.521431 -2.92963,-5.416211c-0.793359,-1.249036 -2.033774,-2.176316 -3.189854,-3.065611c-1.15608,-0.887061 -2.222598,-1.736137 -2.766182,-2.721512c-1.933516,-3.50579 -1.11528,-8.119848 0.03881,-12.66017c1.859877,-7.317695 7.722621,-14.834252 15.008136,-20.310792c7.143959,-5.369289 14.144622,-11.341868 23.167863,-13.086943c0.592096,-0.113955 1.495166,-0.205566 2.139506,-0.212269c0.990143,-0.011172 2.368383,0.375381 3.689404,0.752996s2.562431,0.77534 3.619745,0.576478c0.579657,-0.107252 1.052338,-0.453585 1.517556,-0.884827c0.46273,-0.429007 0.915509,-0.958562 1.363313,-1.510462c0.898095,-1.103799 1.816092,-2.301443 2.55248,-2.830998c1.465313,-1.052407 3.485404,-2.078002 5.512959,-2.560635c2.025067,-0.482633 4.017793,-0.429007 5.58013,0.565306l0.467706,0.299411l0.261219,-0.460289c2.689309,-4.698966 5.470667,-9.55434 9.448655,-13.162913s9.117778,-5.994924 16.713024,-5.807233l0.208975,0.004469l0.151756,-0.13183c1.821068,-1.593135 2.836089,-3.780623 4.062573,-5.679872l0.004976,-0.008938l0.004976,-0.008938c4.806425,-8.209225 17.041413,-16.241931 29.53762,-19.211462c2.532578,-0.603291 6.000568,-1.072517 9.252119,-1.018891s6.271738,0.654682 7.943537,2.033314c0.403023,0.330693 0.679169,0.844607 1.017509,1.430023c0.310975,0.536259 0.716486,1.11944 1.363313,1.593135c2.649504,6.721107 -1.268777,14.697953 -3.020186,20.205775l-0.333365,1.050173l1.057314,-0.538493c1.833507,-0.931749 2.06736,-2.927078 2.467895,-4.050986c1.482727,-4.160473 2.72165,-7.704248 3.007747,-12.398744c0.087073,-1.427788 -0.557267,-2.998579 -0.256243,-4.408492c0.532389,-2.511478 2.679358,-4.841968 5.33135,-6.989236c2.651992,-2.145034 5.781641,-4.097909 8.182366,-5.936829c1.582239,-1.208816 3.149552,-3.253302 4.726815,-4.468374c4.318817,-3.32525 10.132799,-5.530837 15.347223,-8.218609l0.236341,-0.121775l0.012439,-0.243774c0.014927,-0.259415 0.109463,-0.425432 0.246292,-0.697806c0.134341,-0.272375 0.291072,-0.651554 0.251268,-1.144465l-0.082097,-0.987163l-0.649315,0.597928c-0.037317,-0.027036 -0.029854,-0.02011 -0.084585,-0.07016c-0.243804,-0.225005 -0.629413,-0.630551 -1.261313,-0.824051l-0.14678,-0.044465l-0.14678,0.037091c-9.043144,2.266586 -16.611024,5.929902 -21.601546,11.944042c-4.716864,3.140017 -8.219683,6.116252 -15.364638,6.583244c-1.679263,0.111721 -3.492868,-0.084908 -5.214424,0c-12.441475,0.618932 -21.487107,4.803983 -29.592352,9.453791c-4.017793,2.303677 -8.062952,4.915703 -11.060748,8.133255c-3.082381,3.309162 -4.983058,7.085316 -8.08783,10.360962c-7.281783,0.408897 -12.468841,2.777372 -16.461756,6.164739c-3.968037,3.369491 -6.771785,7.722123 -9.446167,12.144022c-7.480807,-0.093845 -12.971376,3.414179 -16.541366,7.523261c-8.316707,-2.348366 -16.526439,1.550681 -22.484714,5.049768c-9.533738,5.599433 -17.214813,13.763969 -22.725284,22.768644c0.316199,-2.819826 1.325747,-5.51676 2.561188,-8.144427l0,-0.002234c1.438445,-3.061143 2.794792,-6.323382 4.458133,-9.123099c3.259264,-5.485478 8.245059,-10.014628 12.39968,-15.138132c8.214707,-10.126349 15.548735,-21.222432 27.940454,-27.125745c3.560038,-1.695918 7.269344,-2.931547 12.220061,-3.074549l0.211463,-0.006703l0.139317,-0.138533c6.177201,-6.073128 13.230107,-11.63681 21.544327,-16.458669c8.080366,-4.685559 16.82995,-8.472885 26.298508,-12.255295c20.382525,-8.141075 42.491582,-13.870774 68.476627,-14.930779c4.395938,-0.179423 9.264558,-0.21428 13.658008,-0.222994zm-22.099105,5.087083c-10.918943,0.036421 -19.90238,4.374529 -26.320898,9.424744c-2.333554,-0.114402 -5.119887,-0.363315 -7.580319,-0.212492c-19.0217,1.164798 -31.933369,8.500145 -43.300116,16.175345c-1.724044,1.161894 -3.194332,2.723747 -4.908425,3.534838c-1.064777,0.504977 -2.348481,0.64351 -3.649599,0.853545s-2.649504,0.509446 -3.686916,1.463539l-0.818485,0.752996l1.171753,0.006703c2.940577,0.015641 5.428374,-1.061345 7.44349,-1.412148c-0.574681,0.799919 -1.226484,1.691449 -1.768824,2.69023c-0.7339,1.345115 -1.223996,2.830998 -0.669218,4.234208l0.611998,1.546212l0.345804,-1.61101c1.646922,-7.677435 8.025635,-11.261429 14.705371,-15.124725c11.344357,-6.562464 27.261285,-13.556839 44.427088,-11.105244l0.574681,0.082003l0.002488,-0.522405c0,-0.455596 -0.179121,-0.734898 -0.291072,-0.886391c0.027366,-0.030388 0.02239,-0.033516 0.139317,-0.134288l0.002488,-0.002681l0.002488,-0.003128c5.868714,-5.297341 15.028785,-7.753181 25.820851,-8.8076l-0.027366,-0.890189c-0.751315,-0.037538 -1.492679,-0.05452 -2.226579,-0.052062zm70.277792,0.864717c-0.16917,0.003798 -0.328389,0.0286 -0.475169,0.064128c-0.589608,0.142109 -1.074729,0.468779 -1.176728,0.517936c-5.226863,2.55058 -13.00123,5.521675 -18.623652,7.804796l-0.087073,0.036197l-0.067171,0.063234c-5.326375,5.032116 -10.717432,9.786942 -20.345208,10.812536l-0.375657,0.037985l-0.057219,0.337396c-2.057409,12.155194 -9.165046,19.584609 -20.810426,23.101571l-0.323414,0.098314l-0.014927,0.306114c-0.345804,6.998174 -3.286381,12.054645 -7.761928,15.877722c-4.478036,3.820842 -10.513432,6.392649 -17.019023,8.291898l-0.455267,0.134065l0.131853,0.413366c1.32102,4.178348 0.092049,7.679669 -2.286286,10.591106c-2.378334,2.913671 -5.928422,5.197239 -9.162558,6.765795l-0.44034,0.214503l0.238829,0.393256c3.709306,6.106644 5.241789,16.025193 2.694285,24.015445c-0.380633,1.19541 -1.164289,2.366241 -1.761361,3.60187s-1.002582,2.580744 -0.470194,4.033111l0.139317,0.382084l0.437852,-0.084908c2.077311,-0.404428 3.326185,-1.861264 4.107354,-3.523666c0.778681,-1.660167 1.146875,-3.570588 1.497654,-5.087753c1.674288,-7.210443 1.651898,-14.856596 -1.878287,-21.852536c5.876178,-4.334757 11.473722,-8.689623 11.822014,-17.709938c11.856843,-4.366038 21.270669,-11.129599 24.086856,-23.700393c6.577737,-3.590698 12.513622,-7.485276 16.170684,-13.696937c2.11214,-3.586229 3.231649,-6.821656 5.134814,-10.539715c4.331255,-0.496039 6.806614,-1.845623 10.100458,-3.583995c4.333743,-2.285802 6.617541,-5.757406 10.192506,-7.592527c3.102284,-1.591571 6.386176,-2.48824 9.548167,-3.575057c3.159503,-1.086594 6.202079,-2.371827 8.724706,-4.772478l0.368194,-0.350802l-0.41795,-0.303433c-0.039805,-0.030388 -0.032341,-0.025249 -0.067171,-0.052285c0.092049,-0.096527 0.174146,-0.212716 0.22639,-0.350802l0.082097,-0.216514l-0.14678,-0.185903c-0.266194,-0.336502 -0.607023,-0.558156 -0.96029,-0.653789c-0.176634,-0.047816 -0.353267,-0.065021 -0.51995,-0.060999zm0.945363,1.181333c0.007463,0.005139 0.014927,0.009608 0.02239,0.021674c-0.002488,-0.002011 -0.014927,-0.010725 -0.024878,-0.019216c0,-0.000894 0,-0.001564 0.002488,-0.002458zm54.597204,14.314528c-3.856086,0.118424 -7.164857,1.463539 -10.249726,2.962828c-3.084869,1.501524 -5.995592,3.154988 -9.030705,3.98172c-1.791214,0.482633 -4.079988,0.292708 -6.119982,1.63112l-1.393167,0.902702l1.71658,-0.09608c6.816565,-0.386553 10.871675,-2.687996 15.349711,-4.739185c3.234137,-1.474711 6.26925,-2.591916 9.901434,-3.776154l-0.174146,-0.866951zm-167.115311,21.443639c-0.039805,0 -0.082097,0.004469 -0.121902,0.011172l-0.263707,0.040219l-0.106975,0.221207c-2.079799,4.310178 -4.361109,9.111926 -6.475737,14.094662c-2.353456,5.539104 -5.517935,11.574247 -5.754276,17.792612c-0.253755,6.660778 1.363313,13.902503 1.017509,21.204557c-2.194237,-1.001016 -5.174619,-1.774122 -8.339097,-2.082471c-3.358527,-0.326224 -6.851394,-0.118424 -9.665093,0.922812c-5.781641,-7.156817 -14.031178,-13.390823 -27.30109,-13.102584l-0.104487,0.880358c10.846797,2.303677 19.549113,6.381477 23.857978,14.398542c-6.008031,3.778388 -10.406457,8.647169 -12.287232,15.669922c-1.159314,4.332522 -2.313652,8.837094 -4.637255,12.767422c-3.199308,2.263458 -6.577737,3.776154 -10.530847,3.646558c-7.132516,-0.232379 -14.038641,-5.764779 -18.884871,-8.854969l-1.236435,-0.786513l0.475169,1.291489c1.124484,3.056674 3.408283,5.939063 6.62998,8.251678c2.813699,2.019907 7.137491,3.425351 10.023336,5.34471c1.442923,0.958562 2.502724,2.019907 2.905748,3.29799c0.403023,1.269145 0.186585,2.808654 -1.094631,4.830796c-1.689215,1.901483 -4.42828,2.868983 -7.351442,3.878937c-2.935601,1.012188 -6.047836,2.073533 -8.276902,4.343694c-4.915888,5.009549 -6.552859,12.709328 -2.291262,19.070695c1.940482,2.895796 6.455835,5.485478 11.214991,4.676621l1.617068,-0.274833l-1.515069,-0.576478c-3.71677,-1.412148 -6.274225,-2.477961 -7.970903,-5.170426c-3.129649,-4.971564 -2.042482,-9.525292 0.950339,-13.133866c2.940577,-3.552713 7.779343,-6.111113 12.177769,-6.935611c2.4057,1.930531 6.85637,2.91814 10.913968,2.701402c2.087262,-0.111721 4.072525,-0.549665 5.607496,-1.416616s2.612187,-2.205363 2.751504,-3.975016l0.062195,-0.790981l-0.786144,0.361975c-1.706629,0.788747 -2.716675,2.12269 -4.821352,2.413163c-3.149552,0.433476 -6.51803,-0.728418 -8.513243,-2.031079c2.015116,-1.42332 2.92565,-3.776154 3.970525,-5.787123c0.572193,-1.103799 1.184192,-2.104815 1.977799,-2.817592c0.793607,-0.715011 1.746434,-1.166362 3.154527,-1.211051c1.947945,-0.060329 3.378429,0.58765 4.888522,1.392038c1.510093,0.806622 3.077406,1.776356 5.189546,2.174082l0.517462,0.098314l0.077122,-0.469226c0.16917,-1.005485 -0.241316,-1.749544 -0.736388,-2.279099c-0.495072,-0.53179 -1.034924,-0.913874 -1.311069,-1.356287c-2.169359,-3.47004 -2.940577,-8.785703 -2.577358,-13.953894c0.365706,-5.165957 1.873312,-10.191147 4.047647,-13.055661c2.251457,-2.967297 6.702127,-5.8765 11.538405,-7.302054s10.005922,-1.380866 13.85952,1.367459c2.945552,2.100346 3.686916,5.818405 3.706818,10.231366s-0.679169,9.444854 -0.412974,14.018692l0.012439,0.214503l0.199024,0.125127c0.758778,0.482633 1.686727,0.938452 3.007747,0.976437l0.455267,0.013406l0.054732,-0.408897c0.119414,-0.938452 0.669218,-2.212067 1.199118,-3.461102c0.532389,-1.25127 1.059802,-2.471258 1.042387,-3.523666c-0.102,-5.999392 -1.338435,-14.592936 -2.241506,-22.15865c-0.442828,-3.695715 0.136829,-6.944548 0.002488,-10.468214c-0.077122,-1.984157 -0.64434,-4.85314 -1.029948,-7.891938s-0.584632,-6.234006 0.02239,-8.754421c2.196725,-9.107458 5.963251,-19.39245 8.699828,-27.896616l0.174146,-0.545196l-0.624437,-0.024579c0.004976,0.004469 -0.007463,0 -0.007463,0l0.007463,0c-0.002488,-0.004469 -0.017415,-0.017875 -0.07961,-0.058095c-0.114439,-0.071501 -0.378145,-0.178753 -0.659266,-0.169815zm-69.762818,4.457649l-0.917997,0.265895c0.228877,3.391835 -0.584632,6.65184 -3.221698,8.285195c-7.811684,1.861264 -13.108205,6.053018 -16.752829,11.641279c-4.582523,1.025594 -8.152512,2.929312 -10.986114,5.657528c-2.554968,2.46232 -3.582428,6.006096 -5.517935,8.539917c-1.35585,1.776356 -2.868182,2.50254 -3.985949,4.030877l-0.709271,0.969734l1.250118,-0.292708c2.718665,-0.634573 4.303392,-2.332725 5.485096,-4.24538c1.179216,-1.912655 2.012628,-4.059924 3.26399,-5.771483c2.647017,-3.626448 7.120077,-6.502135 12.070794,-6.951251l0.253755,-0.022344l0.126878,-0.196628c2.052433,-3.172863 4.736766,-6.383711 8.326658,-8.696326c3.59238,-2.314849 8.080366,-3.747107 13.842105,-3.371726c0.9379,0.062563 2.002677,0.377615 3.017698,0.560837c0.507511,0.091611 1.007558,0.149706 1.497654,0.102783c0.490096,-0.049157 0.98268,-0.223441 1.35585,-0.576478l0.46273,-0.440179l-0.604535,-0.268129c-1.365801,-0.60776 -3.301307,-0.813325 -5.276619,-0.898233c-1.59219,-0.069267 -3.045064,-0.040219 -4.34867,-0.033516c0.704047,-0.869186 1.370776,-2.019907 1.783751,-3.273412c0.544828,-1.655698 0.641852,-3.510259 -0.415462,-5.016252zm203.342619,11.180991c-0.049756,0 -0.074634,0.004469 -0.12439,0.011172l-0.099512,0.015641l-0.099512,0.053626c-0.298536,0.183222 -0.447804,0.453585 -0.547315,0.688198c-0.074634,0.234613 -0.12439,0.458054 -0.199024,0.632338c-0.049756,0.176518 -0.099512,0.290473 -0.149268,0.332927c-0.049756,0.026813 -0.12439,0.029047 -0.174146,0.037985c-0.24878,-0.134065 -0.447804,-0.375381 -0.721461,-0.703839c-0.323414,-0.368678 -0.845851,-0.802153 -1.617068,-0.840138l-0.547315,-0.026813l0.024878,0.489336c0.024878,1.123909 0.621949,2.075767 1.219021,3.005282c0.621949,0.929515 1.243899,1.847858 1.517556,2.891327c1.019997,3.796264 2.562431,8.51087 3.408283,13.158444c0.796095,4.500103 0.895607,8.915298 -0.746339,12.345119c-0.12439,-0.035751 -0.199024,-0.062563 -0.37317,-0.09608c-0.323414,-0.062563 -0.820973,0.004469 -1.169265,0.319521l-0.273658,0.252488l0.223902,0.297177c0.771217,1.090392 2.064872,1.644526 3.507795,1.979688l0.547315,0.120658l0.074634,-0.480398c0.074634,-0.310583 0.024878,-0.592119 -0.074634,-0.822263c-0.12439,-0.230144 -0.298536,-0.388787 -0.447804,-0.502742c-0.24878,-0.185456 -0.323414,-0.254723 -0.398048,-0.353037c2.910723,-5.098925 1.666824,-10.760921 0.149268,-16.268744c-1.567312,-5.599433 -3.358527,-11.071505 -1.71658,-15.728016l0.174146,-0.556368l-0.621949,-0.024579c0,0.004469 -0.024878,0 -0.024878,0l0.024878,0c0,-0.004469 -0.024878,-0.015641 -0.099512,-0.05586c-0.099512,-0.073736 -0.37317,-0.180987 -0.646827,-0.17205zm17.613606,5.590495l-0.472682,0.011172l-0.024878,0.424538c0,0.556368 0.223902,1.016657 0.572193,1.309365s0.771217,0.43571 1.169265,0.554134c0.398048,0.116189 0.771217,0.212269 1.044875,0.330693c0.24878,0.118424 0.398048,0.234613 0.472682,0.422304c6.965833,23.18201 -7.761928,40.950043 -27.515041,46.116001l-0.646827,0.167581l0.37317,0.502742c0.522437,0.744059 0.37317,1.454601 0.149268,2.205363c-0.12439,0.375381 -0.273658,0.744059 -0.348292,1.11944s-0.074634,0.806622 0.199024,1.166362l0.24878,0.30388l0.37317,-0.169815c0.945363,-0.4156 1.393167,-1.240098 1.542434,-2.082471c0.099512,-0.692667 0,-1.40321 -0.174146,-2.055658c5.099985,-1.606541 9.8268,-3.749341 14.653127,-7.076378c2.08975,-1.456836 3.80633,-3.351616 6.169738,-4.665449c2.21414,-1.240098 5.522911,-2.853342 7.936074,-2.837701c1.542434,0.008938 2.686821,0.583181 3.756574,1.396507c1.044875,0.788747 1.990238,1.796466 3.035113,2.65448c1.318533,2.515946 0.995119,4.803983 0.37317,7.268538c-0.646827,2.435508 -1.567312,5.014017 -1.418045,7.961205c-0.149268,0.174284 -0.671705,0.451351 -1.219021,0.766403c-0.298536,0.165346 -0.597071,0.355271 -0.796095,0.679261s-0.174146,0.773106 0.074634,1.161894l0.223902,0.355271l0.398048,-0.165346c1.194143,-0.471461 2.114628,-1.110502 3.035113,-1.566322s1.84097,-0.752996 3.184381,-0.630104l0.646827,0.058095l-0.099512,-0.578712c-0.074634,-0.440179 -0.447804,-0.779809 -0.845851,-0.92728c-0.37317,-0.149706 -0.820973,-0.169815 -1.243899,-0.156409c-0.572193,0.017875 -1.119509,0.102783 -1.567312,0.176518c0.472682,-7.324398 4.652181,-12.890315 9.229729,-17.238478c3.482917,-2.408695 6.692175,-5.018486 10.175092,-7.572418c4.229256,-3.099128 7.911196,-7.076378 12.588255,-9.102989l0.472682,-0.212269l-0.273658,-0.4156c-0.970241,-1.490352 -2.288774,-2.536056 -3.234137,-3.818608l-0.746339,-1.02336l-0.174146,1.215519c-0.422926,3.228723 -1.119509,4.924641 -3.109747,6.904329c-2.239018,2.252286 -6.194616,4.509041 -9.901434,7.331101c-2.139506,1.642292 -3.980476,3.407476 -5.970714,4.719075s-4.104866,2.17855 -6.866321,2.100346c-4.851205,-0.138533 -7.363881,-2.133862 -8.707291,-5.203942c-1.368289,-3.067846 -1.418045,-7.246194 -1.019997,-11.516152c0.646827,-6.676419 0.597071,-13.310384 -1.243899,-18.932161l-0.12439,-0.33963l-0.398048,0.022344c-0.796095,0.042454 -1.194143,-0.178753 -1.71658,-0.473695c-0.547315,-0.294942 -1.219021,-0.670323 -2.239018,-0.64351zm55.726665,25.682316c-0.174146,-0.002234 -0.348292,0 -0.522437,0.008938l-0.447804,0.026813l-0.024878,0.393256l0,0.008938l0,-0.008938c0,0.004469 -0.024878,0.017875 -0.049756,0.073736c-0.099512,0.100548 -0.199024,0.335162 -0.199024,0.583181c0,-0.02011 0,-0.042454 0.024878,-0.062563l-0.024878,0.178753l0,-0.116189c-1.044875,3.816373 -3.856086,5.561448 -6.791687,7.976846c-6.368762,5.215114 -11.692648,12.54845 -13.583374,21.696127c-0.771217,3.635386 -1.069753,7.713185 -2.885845,9.614669c-1.666824,1.651229 -4.030232,2.453383 -6.816565,2.980704s-5.995592,0.766403 -9.329241,1.345115c-3.408283,0.596588 -6.219494,1.897015 -8.931193,3.1103c-2.736577,1.215519 -5.348765,2.346131 -8.433634,2.694699c-3.55755,0.399959 -6.194616,0.127361 -9.080461,-0.516149c1.243899,-1.821045 1.442923,-4.131425 1.542434,-6.477556c0.099512,-2.594151 0.049756,-5.255334 0.845851,-7.386961c0.37317,-0.940687 0.970241,-1.595369 1.59219,-2.283568c0.621949,-0.690433 1.243899,-1.432257 1.418045,-2.484665l0.074634,-0.471461l-0.522437,-0.042454c-0.547315,-0.042454 -1.019997,0.140768 -1.418045,0.413366c-0.37317,0.272598 -0.696583,0.627869 -0.970241,1.005485c-0.298536,0.406663 -0.572193,0.831201 -0.845851,1.219988c-0.074634,-0.446882 -0.149268,-0.873655 -0.24878,-1.322771c-0.174146,-0.811091 -0.472682,-1.613244 -1.219021,-2.120456l-0.621949,-0.422304l-0.174146,0.68373c-0.223902,0.963031 0,1.946172 0.298536,2.911437c0.273658,0.94739 0.597071,1.881374 0.671705,2.741622c-1.069753,2.844405 -1.243899,5.82064 -1.567312,8.508636c-0.348292,2.728215 -0.845851,5.132441 -2.537553,6.864109c-2.661943,2.750559 -7.139979,3.117003 -12.16533,4.102378c-6.070226,1.19541 -11.316991,3.977251 -17.817606,4.234208c-5.522911,0.218972 -9.38646,-0.43571 -13.259961,-1.543978c-1.074729,-0.306114 -2.154433,-0.866951 -3.259015,-1.309365s-2.273847,-0.77534 -3.487892,-0.482633l-0.403023,0.09608l0.034829,0.370912c0.097024,1.088158 0.709022,1.832217 1.44541,2.328256c0.181609,0.125127 0.380633,0.210035 0.574681,0.315052c-2.885845,0.149706 -4.978083,0.985375 -7.301686,1.51493c0.68912,-0.699371 1.597166,-1.34735 2.465407,-2.053423c1.236435,-1.005485 2.388286,-2.209832 2.316139,-3.943735l-0.017415,-0.406663l-0.450291,-0.024579c-1.301118,-0.064798 -2.184286,0.574244 -2.751504,1.291489c-0.569706,0.717246 -0.947851,1.523868 -1.388191,1.995329c-3.326185,3.54601 -7.781831,6.296569 -12.08572,9.136505c-2.460432,-1.396507 -5.684617,-1.863498 -9.050607,-2.075767c-3.395844,-0.212269 -6.931004,-0.174284 -9.963629,-0.489336c-0.238829,-0.509446 -0.33834,-1.054642 -0.405511,-1.628885c-0.072146,-0.652448 -0.12439,-1.338412 -0.514974,-1.968516l-0.136829,-0.221207l-0.283609,-0.006703c-1.813604,-0.049157 -2.920674,0.572009 -3.654575,1.389803c-0.736388,0.81556 -1.179216,1.769653 -1.957897,2.5584c-11.115479,11.308352 -28.592257,19.160071 -47.982151,22.645751c-0.985168,0.178753 -2.226579,0.205566 -3.380917,0.375381c-1.154338,0.167581 -2.293749,0.49157 -2.913211,1.392038l-0.368194,0.536259l0.684144,0.134065c1.485215,0.294942 3.1396,-0.006703 4.706913,-0.32399c1.238923,-0.250254 2.423115,-0.502742 3.363502,-0.556368c-0.355755,0.609994 -0.920485,1.190941 -1.485215,1.787528c-0.738876,0.779809 -1.50263,1.608776 -1.50263,2.679058l0,0.627869l0.661754,-0.205566c1.577264,-0.493805 2.465407,-1.608776 3.181893,-2.717043c0.691608,-1.072517 1.271265,-2.151737 2.124579,-2.875686c6.940955,-0.880358 13.115669,-3.161691 18.335068,-4.911235c6.077689,-2.037782 11.195089,-4.13366 16.240342,-6.734514c1.967848,-1.012188 4.483011,-2.183019 6.525493,-3.608573c2.271359,-1.584197 4.398426,-3.528134 6.047836,-3.943735c1.572288,-0.395491 5.70452,-0.551899 9.650167,-0.397725c1.972823,0.07597 3.918281,0.225675 5.510472,0.440179c1.594678,0.216738 2.863455,0.529555 3.348575,0.799919c0.977704,0.547431 1.278728,1.313833 1.614581,2.223239c0.335853,0.91164 0.691608,1.97075 1.848434,2.681293l0.266194,0.163112l0.273658,-0.149706c0.634388,-0.344099 0.843363,-0.969734 0.957802,-1.550681c0.106975,-0.542962 0.14678,-1.085924 0.246292,-1.526102c4.24667,-4.111316 9.8268,-7.912048 17.730533,-8.477354c6.027933,-0.431241 12.652938,0.844607 19.148578,0.446882c5.930909,-0.361975 10.672651,-2.594151 15.001419,-3.586229c2.537553,-0.578712 5.149741,-0.746293 7.712172,-1.340646c4.005354,-0.922812 7.189735,-2.989641 9.727288,-4.660981c2.686821,0.361975 6.418518,0.786513 10.125336,0.426772c5.672178,-0.554134 9.428753,-3.65773 14.777517,-5.38493c3.80633,-1.224457 8.359,-1.3831 12.339476,-2.04672c2.015116,-0.332927 3.856086,-0.793216 5.398521,-1.617713c1.069753,-0.558603 1.940482,-1.309365 2.637065,-2.265692c0.199024,1.061345 0.621949,2.044486 1.293655,2.795248c0.995119,1.128377 2.562431,1.720496 4.229256,1.117205l0.273658,-0.107252l0.024878,-0.281536c0.099512,-1.579728 -0.472682,-2.65448 -1.019997,-3.635386c-0.572193,-0.983141 -1.119509,-1.883608 -1.219021,-3.342678c-0.099512,-1.445664 0.074634,-3.09019 0.24878,-4.618527c1.59219,-13.692468 11.045821,-25.465578 24.728707,-27.981524l0.348292,-0.064798l0.049756,-0.315052c0.199024,-1.412148 -0.398048,-2.250051 -0.796095,-2.949422l-0.149268,-0.221207l-0.273658,-0.015641c-1.119509,-0.060329 -2.164384,0.241316 -3.059991,0.540727c-0.37317,0.127361 -0.696583,0.243551 -1.019997,0.344099c0.199024,-0.294942 0.398048,-0.592119 0.597071,-0.922812c0.398048,-0.634573 0.721461,-1.398741 0.721461,-2.422101l0,-0.373147l-0.398048,-0.064798c-0.870729,-0.136299 -1.691702,-0.442413 -2.836089,-0.462523zm-52.019846,2.241114c0,0.330693 0,0.656917 0.049756,0.960797c0.323414,2.118221 1.617068,3.925859 2.064872,5.505588c-2.562431,-0.046923 -4.776571,0.87142 -6.866321,1.682511c1.940482,-2.379647 3.68194,-4.96486 4.751693,-8.148895zm-209.900453,8.575668c-1.02746,0.002234 -2.047457,0.167581 -2.883357,0.37985c-3.617258,0.922812 -8.520707,3.391835 -11.321967,4.96486c-0.845851,0.478164 -1.427996,1.018891 -1.947945,1.425554s-0.950339,0.670323 -1.582239,0.744059c-2.054921,0.241316 -3.963061,-0.786513 -6.017982,-1.995329c-2.052433,-1.206582 -4.22428,-2.580744 -6.829004,-2.699168c-1.985262,-0.089376 -3.754086,0.234613 -5.373643,0.496039c-1.617068,0.261426 -3.079893,0.453585 -4.497938,0.183222c-0.51995,-0.098314 -0.920485,-0.348568 -1.455362,-0.618932s-1.214045,-0.534024 -2.146969,-0.507211l-0.547315,0.017875l0.072146,0.489336c0.403023,2.696934 -0.487608,4.448712 -2.01014,5.807233c-1.52502,1.356287 -3.729208,2.285802 -5.898568,3.103596l-0.129365,0.049157l-0.07961,0.100548c-0.243804,0.30388 -0.310975,0.677026 -0.233853,0.983141c0.077122,0.30388 0.251268,0.545196 0.425413,0.761934c0.340828,0.429007 0.661754,0.804388 0.704047,1.018891c-0.067171,3.195207 -1.731507,5.617308 -3.572726,8.030472c-1.850175,2.42657 -3.882457,4.83303 -4.378275,7.947799c-0.824705,5.186067 2.128311,9.650419 5.158199,11.80886c2.708216,1.928296 6.487181,2.860046 8.947613,4.685559c0.383121,0.286005 0.651803,0.668089 1.019997,1.076986c0.365706,0.406663 0.868241,0.828966 1.654385,1.021126l0.607023,0.147471l0.019902,-0.565306c0.049756,-1.342881 -0.746339,-2.332725 -1.721556,-3.032095c-0.975217,-0.697136 -2.141994,-1.173066 -3.007747,-1.615479c-2.716675,-1.392038 -5.739349,-2.813123 -7.885323,-4.810686c-2.146969,-1.999797 -3.456048,-4.531385 -2.812953,-8.363399c0.507262,-3.020923 2.772402,-5.371523 4.767366,-8.133255c1.930531,-2.674589 3.540136,-5.784889 2.753992,-10.150927c2.308676,-0.480398 4.040183,-1.528337 5.323887,-2.927078s2.144481,-3.123706 2.883357,-4.926875c2.649504,0.634573 5.201985,0.373147 7.540514,0.109486c2.472871,-0.279301 4.696962,-0.513914 6.639932,0.234613c2.863455,1.103799 5.346277,3.662199 8.500804,4.620761c0.636876,1.278083 0.268682,3.577291 0.151756,5.686575c-0.062195,1.085924 -0.04478,2.124924 0.350779,2.998579c0.398048,0.873655 1.256338,1.541743 2.569895,1.695918l1.032436,0.120658l-0.54234,-0.797685c-2.308676,-3.396304 -1.64941,-6.553526 0.286097,-9.277273c1.930531,-2.717043 5.177107,-4.933579 7.943537,-6.162504c1.587215,-0.315052 2.980381,-1.09933 4.443206,-1.55515c0.713998,-0.221207 1.612093,-0.319521 2.500237,-0.51168c0.888144,-0.189925 1.798678,-0.489336 2.445505,-1.188706l0.517462,-0.558603l-0.788632,-0.160878c-0.375657,-0.078204 -0.763754,-0.122893 -1.154338,-0.140768c-0.14678,-0.006703 -0.29356,-0.011172 -0.44034,-0.011172zm224.67797,1.928296c-0.447804,0.585416 -0.920485,1.219988 -1.393167,1.888077c-0.621949,0.846842 -1.293655,1.646761 -1.96536,2.3506c-0.099512,-1.740606 -0.646827,-3.117003 -1.492679,-4.223036c1.567312,0.24802 3.333649,0.28377 4.851205,-0.015641zm-266.940675,19.658345l-0.02239,0.424538c-0.054732,0.936218 -0.390584,1.548447 -0.888144,2.069064c-0.495072,0.520618 -1.17424,0.940687 -1.885751,1.385335l-0.522437,0.326224l0.480145,0.375381c3.423209,2.696934 5.978177,6.294335 9.463582,9.170021c-0.932924,2.267927 -0.96029,4.135894 -0.353267,5.695513c0.634388,1.628885 1.900677,2.906968 3.32121,4.062158c2.843553,2.312615 6.294128,4.193989 7.3191,7.230553l0.972729,-0.105017c0.126878,-2.015438 -0.731412,-3.554947 -1.96536,-4.792811c-1.23146,-1.235629 -2.82365,-2.207598 -4.254134,-3.217551c-1.427996,-1.012188 -2.684334,-2.053423 -3.328673,-3.367257c-0.602047,-1.228926 -0.676681,-2.743856 0.164195,-4.828561c1.273752,0.395491 2.895796,0.989844 4.612377,1.385335c1.908141,0.43571 3.915793,0.616697 5.522911,-0.234613l1.251362,-0.66362l-1.440435,-0.165346c-4.908425,-0.560837 -9.023242,-1.789763 -11.924014,-4.030877c-2.90326,-2.241114 -4.649694,-5.492181 -4.806425,-10.284992l-0.012439,-0.433476l-1.704141,0zm-17.095896,22.221213l-1.241909,0.366443c-1.966355,0.578712 -3.339868,1.912655 -4.151885,3.554947c-0.812266,1.642292 -1.089904,3.599635 -0.922724,5.541338c0.16718,1.939468 0.780422,3.86553 1.80017,5.443024c1.019748,1.575259 2.461427,2.815357 4.285231,3.293521l0.798334,0.210035l-0.172156,-0.730652c-0.198526,-0.844607 -0.827193,-1.371928 -1.436703,-1.789763c-0.60951,-0.420069 -1.217031,-0.770872 -1.632742,-1.284786c-1.467801,-1.814341 -2.419134,-5.092222 -1.901175,-7.932158c0.220916,-1.211051 0.830427,-2.080236 1.581493,-2.929312s1.649161,-1.662401 2.337783,-2.725981l0.656281,-1.016657zm327.120497,3.37396l-1.59219,0.828966c-6.319006,3.302459 -14.155568,5.244162 -24.131636,5.302256l-0.099512,0.884827c6.468274,1.126143 12.563378,-0.308349 17.439461,-1.803169c2.736577,-0.846842 6.119982,-1.599838 7.488271,-3.778388l0.895607,-1.434492zm15.573613,2.947188l-0.174146,0.279301c-1.59219,2.460086 -5.174619,4.980501 -9.478509,6.832828c-4.279012,1.850092 -9.229729,3.045502 -13.483863,2.996345c-2.985357,-0.033516 -5.796568,-1.208816 -9.055583,-0.661386l-1.617068,0.272598l1.517556,0.576478c6.294128,2.386351 13.309717,2.019907 19.554089,0.290473c6.095104,-1.684746 11.443869,-4.654277 14.802395,-7.733295c3.333649,2.035548 8.010708,1.789763 12.563378,1.537274c4.701937,-0.261426 9.279485,-0.500508 12.190208,1.389803l0.721461,0.471461l0.074634,-0.804388c0.024878,-0.493805 -0.174146,-0.940687 -0.49756,-1.295958c-0.323414,-0.353037 -0.721461,-0.636807 -1.169265,-0.895999c-0.895607,-0.513914 -1.915604,-0.933984 -2.512676,-1.329474l-0.099512,-0.062563l-0.12439,-0.015641c-3.781452,-0.493805 -6.965833,0.361975 -9.801922,0.442413c-4.876083,0.138533 -8.657535,-1.427788 -13.060937,-2.225473l-0.348292,-0.064798zm-53.686671,3.152753c-0.12439,0.004469 -0.24878,0.015641 -0.37317,0.037985l-0.422926,0.067032l0,0.386553c0.024878,0.189925 -0.024878,0.234613 -0.149268,0.411132l-0.024878,0.024579l-0.024878,0.024579c-1.393167,2.605323 -3.706818,4.330288 -6.567785,5.72456s-6.26925,2.442211 -9.8268,3.659965c-14.080934,4.844202 -32.913561,10.340852 -49.049416,9.802359c-0.679169,-0.022344 -2.248969,-0.33963 -3.689404,-0.37985c-0.721461,-0.02011 -1.427996,0.022344 -2.039994,0.254723c-0.611998,0.230144 -1.124484,0.715011 -1.248874,1.392038l-0.029854,0.163112l0.097024,0.140768c0.348292,0.518383 0.947851,0.768637 1.544922,0.842373s1.226484,0.011172 1.858385,-0.062563c0.950339,-0.111721 1.89819,-0.22791 2.617163,-0.127361c-0.385609,0.370912 -0.860778,0.797685 -1.261313,1.30713c-0.283609,0.364209 -0.51995,0.779809 -0.509998,1.260208c0.009951,0.478164 0.296048,0.960797 0.833412,1.360756l0.305999,0.22791l0.313462,-0.216738c1.077216,-0.744059 1.743946,-1.63112 2.385798,-2.332725c0.639364,-0.701605 1.211557,-1.202113 2.141994,-1.3831c4.632279,-0.895999 9.632752,-0.715011 14.384445,-1.336178c8.458512,-1.09933 17.464339,-3.876702 25.226267,-6.274225c5.522911,-1.711559 12.04094,-3.816373 17.464339,-6.04855c2.388286,-0.994313 4.030232,-2.100346 5.547788,-2.194191c0.597071,-0.037985 1.517556,0.203331 2.46292,0.384319c0.920485,0.180987 1.96536,0.312817 2.786333,-0.254723l0.12439,-0.100548l0.049756,-0.158643c0.12439,-0.596588 -0.174146,-1.15519 -0.671705,-1.43896c-0.472682,-0.28377 -1.069753,-0.408897 -1.71658,-0.507211c-0.970241,-0.149706 -1.96536,-0.259192 -2.686821,-0.4156c0.820973,-0.853545 1.791214,-1.711559 2.08975,-3.24213l0.049756,-0.261426l-0.223902,-0.163112c-0.323414,-0.223441 -0.771217,-0.507211 -1.418045,-0.565306c-0.12439,-0.008938 -0.223902,-0.013406 -0.348292,-0.008938zm-281.519168,1.202113c-0.251268,0.004469 -0.500047,0.013406 -0.746339,0.031282c-0.985168,0.071501 -1.908887,0.254723 -2.654231,0.612229c-0.745095,0.35974 -1.329977,0.938452 -1.436703,1.704855l-0.081102,0.580947l0.645583,-0.084908c0.758281,-0.09608 1.425508,-0.437944 2.075818,-0.737356c0.649564,-0.299411 1.276489,-0.558603 1.871073,-0.598822c2.980381,-0.205566 4.582523,1.036767 6.030421,2.788544c1.447898,1.754012 2.6097,4.01747 4.542718,5.586027c1.435459,1.166362 3.251551,1.421085 5.032814,1.561853c1.781263,0.138533 3.55755,0.176518 5.055205,0.752996c0.348292,0.13183 0.950339,0.538493 1.487703,0.996547s1.039899,0.976437 1.281216,1.298193c0.159219,0.214503 0.393072,0.922812 0.68912,1.604307s0.694096,1.436726 1.552386,1.698152l0.684144,0.2078l-0.027366,-0.647979c-0.129365,-3.192973 -2.878382,-6.417227 -6.356323,-7.121067c-1.758873,-0.357506 -3.246576,-0.353037 -4.535255,-0.484867s-2.358432,-0.375381 -3.463014,-1.208816c-1.393167,-1.050173 -2.181798,-2.285802 -3.069942,-3.610808c-0.888144,-1.32724 -1.878287,-2.737153 -3.65955,-3.995126l-0.034829,-0.024579l-0.037317,-0.017875c-1.072241,-0.513914 -2.57487,-0.820029 -4.089939,-0.880358c-0.253755,-0.011172 -0.505023,-0.013406 -0.75629,-0.011172zm323.960994,17.935614c2.413164,0.022344 4.776571,0.221207 7.139979,0.761934c1.990238,0.453585 4.229256,1.249036 6.070226,2.209832c1.865848,0.960797 3.308771,2.109284 3.80633,3.119237c0.223902,0.516149 0.422926,1.43896 0.447804,2.337193c0.049756,0.900467 -0.049756,1.803169 -0.223902,2.25452c-0.696583,1.771888 -2.935601,2.985173 -5.995592,3.856593c-3.059991,0.869186 -6.891199,1.3831 -10.523384,1.881374c-6.692175,0.916108 -15.175565,1.564087 -21.345303,2.006501c-11.642892,0.833435 -22.663835,0.15194 -32.639904,1.794232c-9.752166,1.599838 -17.588729,4.665449 -24.529684,9.639247c-2.263896,0.458054 -4.030232,1.354053 -5.796568,2.169613c-1.243899,-0.337396 -2.537553,-0.437944 -3.507795,-0.68373c-0.522437,-0.13183 -0.920485,-0.301645 -1.194143,-0.53179c-0.24878,-0.230144 -0.422926,-0.518383 -0.447804,-1.02336c-0.049756,-0.408897 0.223902,-0.954093 0.796095,-1.552915c0.547315,-0.598822 1.368289,-1.23116 2.288774,-1.832217c1.816092,-1.202113 4.005354,-2.283568 5.348765,-2.891327c10.523384,-4.837499 24.181392,-7.503151 36.695014,-10.014628c8.682413,-1.745075 17.787752,-3.440992 27.067237,-4.462118c9.453631,-1.041235 19.479455,-2.01097 27.664308,-3.805201l-0.174146,-0.878123c-26.271142,2.808654 -56.871051,6.271991 -80.704152,13.873455c-3.955598,1.255739 -7.388759,2.321553 -11.518503,4.269959c-1.418045,0.665854 -3.582428,1.622182 -5.473155,2.734919c-0.945363,0.556368 -1.816092,1.150721 -2.487798,1.787528c-0.671705,0.634573 -1.169265,1.322771 -1.243899,2.084705c-0.174146,1.47918 0.572193,2.636605 1.791214,3.291287c0.820973,0.431241 1.816092,0.659151 2.935601,0.746293c-4.05511,1.892546 -9.503387,1.87467 -15.100931,0.929515c-1.758873,-0.297177 -3.326185,-0.37985 -4.696962,-0.665854c-2.706724,-0.56754 -6.413542,-2.234411 -9.376509,-3.329272c-1.594678,-0.589884 -3.565014,-1.146253 -5.182082,-1.794232c-1.614581,-0.650213 -2.781358,-1.409913 -2.982869,-2.145034c-0.22639,-0.833435 -0.114439,-1.523868 0.22639,-2.169613c0.33834,-0.647979 0.925461,-1.244567 1.659361,-1.798701c1.465313,-1.108268 3.500331,-2.019907 5.107448,-2.91814c3.525209,-1.964047 6.274225,-3.96161 9.378997,-5.103394c7.657441,-2.817592 15.817417,-4.649808 24.74861,-5.78042c8.707291,-1.09933 17.961898,-1.253504 28.833573,-2.232176c9.453631,-0.849076 17.787752,-3.134878 26.42041,-4.47329c4.1795,-0.645745 8.831681,-0.954093 13.857032,-1.110502c4.577547,-0.140768 8.806803,-0.592119 12.861913,-0.551899zm4.527791,0.998782c-18.235556,0.317286 -34.431118,3.365022 -51.223751,6.846234l-0.472682,-0.288239c-0.895607,-0.545196 -1.791214,-0.652448 -2.587309,-0.596588c-0.820973,0.05586 -1.542434,0.243551 -2.21414,0.297177c-14.13069,1.070283 -31.769174,5.85639 -43.934504,10.307336c-2.910723,1.063579 -6.530469,2.288036 -9.267046,4.111316c-1.368289,0.91164 -2.520139,1.981922 -3.224186,3.273412c-0.701559,1.293724 -0.932924,2.808654 -0.492584,4.524681l0.037317,0.147471l0.131853,0.09608c1.890726,1.40321 4.530279,2.02661 7.46588,2.332725l1.542434,0.160878l-1.144387,-0.936218c-1.119509,-0.916108 -2.816187,-1.121674 -4.209353,-1.505993c-0.699071,-0.192159 -1.318533,-0.420069 -1.763848,-0.732887c-0.445316,-0.310583 -0.731412,-0.685964 -0.833412,-1.293724c-0.164195,-0.976437 0.156731,-1.834451 0.830924,-2.658949s1.706629,-1.588666 2.890821,-2.267927c2.363408,-1.356287 5.323887,-2.37071 7.164857,-3.085721c13.682886,-5.291084 29.629669,-9.451557 45.94962,-11.03352c-1.641946,0.346334 -3.283893,0.677026 -4.950717,1.027829c-8.558023,1.78306 -17.265315,3.80967 -25.226267,7.181396c-3.781452,1.602072 -6.741931,3.170629 -10.498506,5.391633c-1.492679,0.866951 -3.632184,1.986391 -5.423399,3.273412c-1.791214,1.289255 -3.308771,2.763966 -3.259015,4.482228c0.024878,1.626651 0.970241,2.904734 2.46292,3.651027s3.507795,1.007719 5.796568,0.804388l1.865848,-0.165346l-1.71658,-0.685964c-1.343411,-0.534024 -3.084869,-0.681495 -4.453158,-1.114971c-0.671705,-0.216738 -1.219021,-0.496039 -1.617068,-0.875889c-0.37317,-0.382084 -0.621949,-0.864717 -0.597071,-1.619948c0,-0.493805 0.298536,-1.101564 0.870729,-1.749544s1.393167,-1.322771 2.288774,-1.97075c1.816092,-1.295958 3.980476,-2.48243 5.323887,-3.282349c3.781452,-2.261224 7.040467,-3.802967 10.871675,-5.326835c12.662889,-5.049768 25.873094,-6.251881 39.730126,-9.809063c13.334595,-3.420883 29.132109,-4.32135 43.959382,-6.017268l-0.074634,-0.89153zm-127.619037,2.216535l0,0.02011l-0.012439,0c-0.24878,0.011172 -0.375657,0.149706 -0.432877,0.223441c-0.054732,0.073736 -0.074634,0.127361 -0.094536,0.178753c-0.037317,0.100548 -0.059707,0.192159 -0.07961,0.279301c-0.009951,0.046923 -0.017415,0.07597 -0.027366,0.113955c-5.149741,2.08694 -10.797041,5.190536 -16.593609,6.135692c-4.480523,0.730652 -8.478414,-0.024579 -12.361866,-0.656917c-3.679453,-0.598822 -7.279296,-1.068048 -10.993577,0.053626c-0.057219,-0.388787 -0.136829,-0.755231 -0.206487,-1.065814c-0.084585,-0.366443 -0.097024,-0.639041 -0.049756,-0.873655c0.236341,-0.037985 0.500047,-0.035751 0.855802,-0.069267c0.233853,-0.022344 0.524925,-0.093845 0.75629,-0.290473s0.363218,-0.473695 0.437852,-0.817794l0.02239,-0.098314l-0.027366,-0.098314c-0.268682,-0.929515 -1.039899,-1.508227 -1.940482,-1.731668c-0.903071,-0.223441 -1.937994,-0.163112 -2.985357,0.015641c-2.094726,0.357506 -4.244183,1.211051 -5.231838,1.651229l-0.273658,0.122893l-0.002488,0.274833c-0.002488,0.556368 0.199024,1.021126 0.534876,1.342881c0.335853,0.32399 0.763754,0.502742 1.189167,0.632338c0.763754,0.230144 1.52502,0.355271 2.032531,0.569775c0.032341,0.268129 0.106975,0.498274 0.171658,0.630104c0.074634,0.149706 0.099512,0.236848 0.07961,0.395491c-7.595246,5.831812 -17.347412,12.626654 -28.527574,15.663218c-5.381106,1.463539 -12.369329,2.415398 -18.474384,1.993094c-5.33135,-0.368678 -9.898946,-2.12269 -14.297372,-3.548244l-0.781168,-0.252488l0.119414,0.737356c0.253755,1.557384 -0.380633,2.638839 -1.306094,3.71359c-0.922973,1.076986 -2.146969,2.082471 -2.875894,3.39407l-0.492584,0.89153l1.069753,-0.259192c1.746434,-0.426772 2.826138,-1.501524 3.624721,-2.683527c0.718973,-1.065814 1.266289,-2.212067 1.925555,-3.197442c13.583374,6.345726 33.013073,1.919359 44.297723,-3.313631c3.375941,-1.566322 6.234421,-3.172863 9.247143,-4.938047c3.055015,-1.789763 6.14486,-3.814139 9.147632,-5.110097c3.587404,-1.550681 8.975973,-1.964047 13.553521,-1.061345c2.291262,0.451351 4.376036,1.228926 5.945836,2.319318c1.5698,1.092627 2.622139,2.477961 2.92565,4.216333c0.375657,2.149503 -0.246292,4.607355 -1.425508,6.479791c-1.176728,1.872436 -2.868431,3.101362 -4.535255,3.058908c-0.611998,-0.015641 -0.723949,-0.127361 -1.024973,-0.355271c-0.303511,-0.225675 -0.763754,-0.578712 -1.617068,-0.750762l-0.273658,-0.05586l-0.194048,0.183222c-0.480145,0.449117 -0.743851,0.916108 -0.776193,1.380866s0.171658,0.882592 0.460243,1.215519c0.529901,0.614463 1.333459,1.02336 1.995214,1.356287c0.134341,0.560837 0.276146,1.050173 0.452779,1.398741c0.199024,0.399959 0.435365,0.699371 0.783656,0.866951s0.776193,0.125127 1.089655,-0.02011s0.567218,-0.368678 0.815998,-0.632338c0.49756,-0.525086 0.965265,-1.235629 1.413069,-1.919359c0.450291,-0.68373 0.885656,-1.345115 1.223996,-1.713793c1.890726,-2.048955 4.060086,-2.515946 5.707008,-3.409711c1.047363,0.07597 1.816092,-0.18769 2.388286,-0.520618l0.283609,-0.165346l-0.064683,-0.297177c-0.199024,-0.89153 -0.736388,-1.450132 -1.214045,-1.863498c-0.477657,-0.411132 -0.865754,-0.697136 -1.049851,-1.117205c-0.893119,-2.033314 -0.313462,-4.126956 0.853315,-6.003861c1.166777,-1.87467 2.920674,-3.487915 4.219305,-4.433071c4.358621,-3.168394 10.926407,-5.016252 14.394396,-7.125535l-0.330877,-0.81556c-1.042387,0.09608 -1.753897,-0.18769 -2.928138,-0.22791l-0.514974,-0.015641zm-0.656779,0.866951c-0.004976,0.013406 -0.009951,0.037985 -0.012439,0.049157c-0.004976,0.022344 -0.012439,0.035751 -0.004976,0.022344c0.002488,-0.006703 -0.007463,-0.033516 0.017415,-0.071501zm61.080405,3.344913l-1.467801,0.051391c-14.155568,0.498274 -29.928204,4.048752 -41.464121,8.072926c-4.020281,1.40321 -8.876462,3.134878 -11.10304,5.00508c-1.211557,1.018891 -1.878287,2.078002 -2.04497,3.119237c-0.16917,1.039001 0.171658,2.033314 0.848339,2.868983c1.35585,1.673574 3.995403,2.790779 6.960857,3.04997l1.25385,0.109486l-0.833412,-0.849076c-1.114533,-1.139549 -2.895796,-1.456836 -4.283987,-1.943937c-0.696583,-0.245785 -1.288679,-0.522852 -1.684239,-0.89153c-0.39556,-0.366443 -0.631901,-0.813325 -0.624437,-1.557384c0.004976,-0.335162 0.253755,-0.909405 0.624437,-1.445664c0.370682,-0.538493 0.848339,-1.054642 1.211557,-1.360756c3.734184,-3.157222 12.322061,-5.646356 19.718283,-7.717654c7.761928,-2.17855 16.195562,-3.800732 23.509687,-4.450946c1.219021,-0.107252 2.786333,-0.067032 4.279012,-0.160878s2.935601,-0.301645 3.955598,-1.056876l1.144387,-0.842373zm72.643688,3.179566c-26.395532,0.77534 -52.09448,3.092424 -73.240759,9.623606l0,0.002234c-0.024878,0.002234 -0.024878,0.002234 -0.024878,0.004469l0.298536,0.85131c20.648719,-5.548042 48.114004,-7.972377 73.016857,-9.59009l-0.049756,-0.89153zm4.876083,4.097909c1.169265,1.018891 1.542434,1.972985 1.442923,2.922609c-0.12439,1.009954 -0.796095,2.062361 -1.84097,3.074549c-2.039994,2.024376 -5.398521,3.820842 -7.438515,4.938047c-11.219967,6.088769 -25.400413,11.527324 -38.063302,15.104616c-7.189735,-2.234411 -14.976541,-4.091206 -23.186273,-5.367054c23.95749,-1.190941 44.332552,-5.617308 60.030554,-14.338213l1.368289,-0.764168l-1.617068,-0.060329l0,-0.002234l0,0.002234c0,-0.004469 -0.024878,-0.017875 -0.074634,-0.058095c-0.12439,-0.082673 -0.447804,-0.212269 -0.771217,-0.160878l-0.37317,0.05586l-0.024878,0.163112c-0.049756,0.002234 -0.12439,0.006703 -0.24878,0l-0.174146,-0.011172l-0.149268,0.09608c-3.80633,2.513712 -8.781925,4.448712 -14.056056,6.196021c-8.806803,2.915906 -18.235556,4.850905 -28.51016,6.234006c-5.149741,0.694902 -10.672651,0.529555 -15.97166,1.796466l0.149268,0.782044c-9.005827,-1.371928 -18.55897,-1.993094 -28.535038,-1.557384c8.309244,-3.447696 14.727761,-8.269554 24.927731,-10.874876c10.871675,-2.781841 23.459931,-2.093643 36.943793,-2.886859c12.016062,-0.706074 26.768701,-1.570791 36.172576,-5.284381zm-0.273658,2.804185l-0.174146,0.134065c-12.712645,10.061551 -31.047713,15.193992 -50.527168,19.338824l0.174146,0.875889c0.024878,-0.002234 0.024878,-0.004469 0.049756,-0.006703c19.802868,-2.898031 38.013546,-9.178959 51.198873,-18.856191l0.199024,-0.156409l-0.024878,-0.24802c-0.024878,-0.064798 0,-0.223441 -0.024878,-0.424538c-0.024878,-0.100548 -0.049756,-0.225675 -0.149268,-0.35974c-0.099512,-0.13183 -0.323414,-0.245785 -0.49756,-0.270364l-0.223902,-0.026813zm-14.0063,1.135081c-0.024878,0.002234 -0.074634,0.006703 -0.099512,0.011172l-0.074634,0.008938l-0.049756,0.017875c-16.444342,6.106644 -37.889156,12.032301 -59.781775,12.926065c-0.49756,0.02011 -1.343411,-0.125127 -2.189262,-0.122893c-0.845851,0.004469 -1.816092,0.203331 -2.413164,0.985375l-0.572193,0.744059l0.995119,-0.044688c25.475047,-1.092627 46.57157,-6.122285 65.105661,-13.442214l-0.174146,-0.853545s0.049756,0.026813 -0.074634,-0.058095c-0.12439,-0.071501 -0.37317,-0.178753 -0.671705,-0.17205zm-14.279958,0.907171c-4.328768,0.717246 -8.085342,1.262442 -12.239964,2.241114c-3.259015,0.768637 -6.468274,1.843389 -9.677532,2.451148c-8.831681,1.678042 -18.484336,2.996345 -27.515041,3.119237l-0.024878,0.89153c18.757993,1.047939 34.40624,-4.404023 49.656439,-7.831609l-0.199024,-0.87142zm29.132109,2.37071c4.652181,3.720294 7.61266,10.792203 4.328768,17.093241c-0.223902,0.4156 -0.621949,0.817794 -1.044875,1.242332c-0.447804,0.424538 -0.895607,0.869186 -1.194143,1.43896c-1.044875,2.037782 -1.343411,4.292303 -1.915604,6.238474c-0.572193,1.966281 -1.368289,3.552713 -3.333649,4.491165c-2.512676,1.206582 -5.697056,1.228926 -8.980949,0.7597c-3.259015,-0.49157 -6.592663,-1.452367 -9.329241,-2.12269c-3.756574,-0.938452 -7.562904,-1.653464 -9.851678,-2.658949c-4.403402,-1.926062 -8.135098,-5.009549 -12.762401,-6.904329c16.618487,-4.768232 31.968198,-10.700592 44.083772,-19.577906zm-0.547315,5.226286c-3.532672,0.685964 -8.458512,1.979688 -12.239964,3.141581l0.199024,0.866951c4.776571,-0.453585 8.856559,-1.548447 12.364354,-3.172863l-0.323414,-0.83567zm0.870729,4.156004l-1.169265,0.32399c-5.299009,1.474711 -11.79216,1.961813 -17.837508,2.889093l0.024878,0.884827c3.831208,0.404428 7.463393,-0.328458 11.070699,-0.895999c1.293655,-0.203331 2.860967,-0.391022 4.229256,-0.692667c1.343411,-0.301645 2.562431,-0.670323 3.109747,-1.548447l0.572193,-0.960797zm-127.248356,1.787528c0.967753,0.294942 1.828531,0.748528 2.88087,1.088158c-0.261219,0.078204 -0.524925,0.154174 -0.811022,0.232379c-0.778681,0.218972 -1.631995,0.493805 -2.129555,1.199878l-0.221414,0.315052l0.303511,0.252488c0.298536,0.245785 0.699071,0.35974 1.042387,0.312817c0.345804,-0.046923 0.60951,-0.196628 0.855802,-0.348568c0.487608,-0.306114 0.930436,-0.656917 1.316045,-0.755231c3.992915,-1.036767 6.488176,0.330693 8.801828,2.247817c2.288774,1.861264 4.279012,4.26549 7.065345,5.244162c1.194143,3.608573 2.487798,7.109895 3.532672,10.819016c-1.766336,0.692667 -3.731696,1.184238 -5.622422,1.206582c-2.015116,0 -3.880964,-0.469226 -5.373643,-1.720496c-0.721461,-0.625635 -1.766336,-2.212067 -2.92565,-3.530369c-1.117021,-1.295958 -2.930625,-3.293521 -4.609889,-5.282147c-1.681751,-1.99086 -3.234137,-3.992892 -3.78394,-5.125738c-0.786144,-1.617713 -0.763754,-4.26549 -0.320926,-6.155801zm31.990588,1.602072c7.86144,-0.053626 16.593609,1.114971 22.763347,2.04672c8.359,1.264676 15.996538,2.359538 22.788225,4.667684c5.871202,1.99086 10.921431,5.445259 16.767755,8.001424c-15.125809,-5.210646 -32.789171,-8.101973 -48.512052,-12.642295l-0.149268,-0.042454l-0.149268,0.037985s-0.12439,0.002234 -0.298536,0.044688c-0.099512,0.022344 -0.223902,0.058095 -0.348292,0.165346c-0.12439,0.105017 -0.199024,0.28377 -0.223902,0.431241l0,0.317286l0.323414,0.111721c13.807276,4.678856 31.669663,7.273007 45.551573,11.62117c1.741458,0.558603 3.657062,1.921593 5.945836,1.586432l1.542434,-0.223441c2.811211,0.87142 5.945836,1.497055 8.956071,2.212067c5.522911,1.340646 10.523384,2.457852 16.444342,1.430023c0.37317,1.027829 0.174146,1.832217 -0.298536,2.547228c-0.547315,0.826732 -1.492679,1.519399 -2.388286,2.167378c-5.821446,4.178348 -13.359473,7.820437 -24.057002,7.284179c-8.259488,-0.402194 -17.165803,-2.591916 -25.524803,-4.223036c-7.98583,-1.586432 -15.822392,-4.24538 -22.564324,-6.904329c-13.88191,-5.518994 -26.917969,-11.766406 -35.973552,-19.309776c2.039994,0.431241 4.129744,0.766403 6.741931,0.498274c1.691702,-0.174284 2.836089,-0.909405 4.005354,-1.121674c2.612187,-0.475929 5.572666,-0.68373 8.657535,-0.703839zm-25.134218,1.27138c-0.084585,0.002234 -0.16917,0.004469 -0.251268,0.011172c-0.674193,0.046923 -1.343411,0.24802 -1.947945,0.525086c-1.214045,0.554134 -2.234042,1.416616 -2.744041,2.265692l-0.507511,0.844607l1.047363,-0.194394c1.306094,-0.241316 2.124579,-0.913874 2.918186,-1.418851c0.79112,-0.507211 1.532483,-0.887061 2.918186,-0.806622l0.283609,-0.831201c-0.54234,-0.286005 -1.126972,-0.402194 -1.71658,-0.395491zm121.038813,1.00325l-0.074634,0.02011c-8.707291,2.42657 -21.693594,1.718262 -31.470639,2.214301l-0.024878,0.89153c9.553142,0.887061 21.768228,0.473695 30.027716,-1.349584c-0.049756,0.006703 0.223902,-0.013406 0.49756,-0.017875c0.273658,-0.002234 0.597071,-0.008938 0.895607,-0.051391c0.323414,-0.044688 0.671705,-0.100548 0.920485,-0.393256c0.149268,-0.145237 0.223902,-0.361975 0.199024,-0.558603s-0.099512,-0.370912 -0.223902,-0.547431l-0.149268,-0.2078l-0.273658,0l-0.323414,0zm-96.277764,0.022344l-0.472682,0.770872c2.711699,2.015438 7.065345,2.504774 10.846797,3.653261c20.076526,6.095472 38.635496,12.865736 61.772013,15.65875c3.607306,0.424538 7.264369,1.273614 11.045821,1.117205l0.049756,-0.893764c-15.747758,-2.100346 -29.878448,-4.424133 -43.188165,-8.468416c-13.434107,-4.068862 -26.818457,-8.070691 -40.05354,-11.837907zm-21.718472,1.979688c-0.149268,0.002234 -0.323414,0.006703 -0.49756,0.015641c-0.435365,0.022344 -0.875705,0.067032 -1.303606,0.136299c-1.711605,0.277067 -3.281405,0.925046 -3.950622,2.113752l-0.736388,1.304896l1.420532,-0.712777c1.617068,-0.811091 5.1174,-1.738371 8.17739,-1.510462l0.223902,-0.862482c-0.995119,-0.335162 -2.164384,-0.493805 -3.333649,-0.484867zm15.100931,0.05586l-0.024878,0.609994c0,0.265895 0.074634,0.522852 0.24878,0.721715c0.149268,0.196628 0.37317,0.315052 0.597071,0.384319c19.678478,6.321148 38.809641,14.096897 61.249575,18.118836c7.463393,1.318302 15.250199,2.547228 23.484809,2.457852l0.049756,-0.893764c-33.659901,-2.234411 -58.090072,-12.73614 -84.958286,-21.197853l-0.646827,-0.201097zm69.160771,2.410929l-0.099512,0.887061c8.607779,1.311599 20.27555,3.901281 29.555035,1.552915l-0.199024,-0.87142c-9.801922,1.211051 -20.325306,-1.146253 -29.256499,-1.568556zm-70.65345,0.223441l0,0.433476c-0.024878,0.265895 0.049756,0.522852 0.223902,0.721715c0.12439,0.163112 0.298536,0.26366 0.472682,0.335162c14.454104,8.537683 33.759412,13.453386 52.890575,17.922207c9.229729,2.167378 18.832627,4.871015 28.808695,3.37396l-0.074634,-0.893764c-11.66777,0.290473 -19.952136,-1.988625 -29.231621,-4.223036c-6.493152,-1.586432 -12.961425,-2.949422 -18.882383,-4.468821c-12.239964,-3.150519 -23.186273,-7.972377 -32.714537,-13.1361l-0.12439,-0.064798l-1.368289,0zm-10.374116,0.306114c-0.174146,-0.002234 -0.323414,-0.002234 -0.49756,0.004469c-0.422926,0.013406 -0.845851,0.053626 -1.268777,0.116189c-1.666824,0.256957 -3.21921,0.898233 -3.970525,2.024376l-0.726437,1.088158l1.325996,-0.437944c1.679263,-0.558603 5.28657,-1.780825 7.948513,-1.322771l0.323414,-0.83567c-0.920485,-0.420069 -2.015116,-0.621166 -3.134625,-0.636807zm8.209732,2.393054c15.772636,8.244975 34.107704,16.780424 56.27398,20.757675c10.573139,1.876905 23.186273,4.669918 33.311609,1.027829c-0.995119,2.368475 -2.661943,4.223036 -3.756574,6.725576c-8.533146,6.390414 -21.569205,13.071302 -37.391597,12.356291c-6.169738,-0.290473 -10.996065,-2.033314 -14.056056,-5.429618l-0.099512,-0.089376l-0.149268,-0.044688c-4.353646,-1.206582 -7.562904,-4.267724 -11.045821,-6.6362c-3.55755,-2.435508 -6.866321,-4.893359 -9.876556,-7.775749l-0.024878,0c-6.219494,-5.340241 -10.921431,-11.998785 -13.185327,-20.891739zm73.489539,0.873655l-0.074634,0.017875c-0.199024,0.049157 -0.422926,0.180987 -0.522437,0.366443c-0.099512,0.18769 -0.12439,0.384319 -0.099512,0.572009l0.024878,0.031282l0,0.029047c0.049756,0.174284 0.199024,0.366443 0.398048,0.464757c0.199024,0.089376 0.398048,0.102783 0.597071,0.084908l-0.024878,0l0.074634,-0.004469c-0.024878,0.002234 -0.049756,0.002234 -0.049756,0.004469c4.677059,-0.071501 8.806803,1.068048 13.011181,2.006501s8.508268,1.675808 13.434107,0.670323l-0.12439,-0.893764c-10.100458,0.580947 -16.618487,-2.953891 -26.569678,-3.347147l-0.074634,-0.002234zm-81.176833,0.627869c-0.845851,0.02011 -1.666824,0.138533 -2.388286,0.433476c-0.696583,0.292708 -1.268777,0.806622 -1.442923,1.528337l-0.348292,1.385335l1.169265,-0.960797c0.820973,-0.670323 2.164384,-0.826732 3.582428,-0.804388s2.836089,0.223441 3.905842,0.022344l1.418045,-0.277067l-1.318533,-0.569775c-1.069753,-0.45582 -2.860967,-0.797685 -4.577547,-0.757465zm11.518503,2.542759zl0.597071,1.25127c0.522437,1.072517 1.890726,1.921593 3.507795,2.770669c1.59219,0.87142 3.458039,1.675808 4.925839,2.368475c18.981895,8.937642 41.546219,17.696532 69.135893,16.355886l0.024878,0l-0.024878,-0.893764c-33.112585,-0.312817 -55.801299,-9.943127 -76.848066,-21.159868l-1.318533,-0.692667zm-7.936074,0.715011c-0.472682,0 -0.945363,0.044688 -1.393167,0.156409c-1.194143,0.245785 -2.313652,0.849076 -2.761455,1.832217l-0.37317,0.849076l0.970241,-0.268129c0.621949,-0.156409 1.467801,-0.49157 2.438042,-0.782044c0.970241,-0.312817 2.064872,-0.536259 3.134625,-0.536259l0.223902,-0.849076c-0.522437,-0.223441 -1.144387,-0.357506 -1.766336,-0.402194l-0.472682,0zm14.354592,7.284179l1.044875,0.782044c3.756574,2.88239 9.95119,5.183833 15.275077,7.217146c14.678005,5.653059 33.510633,11.507215 52.965209,10.322977l-0.024878,-0.893764c-26.320898,-0.446882 -49.283269,-8.043878 -66.896875,-17.36137l-0.12439,-0.067032l-2.239018,0zm-7.264369,0.424538c7.264369,9.384525 16.867267,16.646359 27.316017,23.12615c-0.671705,0.737356 -1.691702,1.273614 -2.885845,1.63112c-1.368289,0.402194 -2.960479,0.536259 -4.353646,0.513914c-7.662416,-0.178753 -12.662889,-6.055253 -13.707764,-12.356291l-0.024878,-0.268129l-0.273658,-0.089376c-2.164384,-0.715011 -4.279012,-1.675808 -5.746812,-3.061143c-1.442923,-1.385335 -2.288774,-3.195207 -1.915604,-5.831812c0.199024,-1.36299 0.895607,-2.368475 1.59219,-3.664433zm13.458985,5.362585l-0.174146,0.022344c-0.074634,0.022344 -0.24878,0 -0.472682,0.022344c-0.12439,0.022344 -0.24878,0.044688 -0.398048,0.134065c-0.149268,0.111721 -0.273658,0.290473 -0.298536,0.446882l-0.049756,0.268129l0.24878,0.156409c2.661943,1.787528 6.169738,3.619745 9.777044,5.183833c3.109747,1.36299 6.542907,2.681293 9.727288,3.820842c6.741931,2.390819 14.454104,4.982736 22.11652,4.491165l0.024878,-0.893764c-16.419464,-1.854561 -28.908207,-7.217146 -40.352076,-13.562872l-0.149268,-0.089376zm2.811211,5.38493l-0.174146,0.558603c-0.049756,0.223441 -0.074634,0.446882 0.024878,0.625635c0.099512,0.201097 0.24878,0.312817 0.348292,0.357506c0.074634,0.044688 0.099512,0.067032 0.099512,0.067032l0.024878,0.223441l0.24878,0.134065c3.333649,1.541743 6.866321,3.440992 10.747285,4.915703c3.632184,1.407679 7.86144,3.306928 12.16533,2.949422l0.074634,-0.893764c-8.931193,-1.720496 -15.946782,-5.183833 -23.012127,-8.647169l-0.547315,-0.290473zm-8.806803,2.681293l-0.149268,0l-0.49756,0.067032l0.074634,0.446882c0.547315,3.329272 2.263896,6.278694 4.925839,8.200287c2.661943,1.899249 6.294128,2.770669 10.573139,2.01097l-0.12439,-0.893764c-3.955598,0.290473 -7.015589,-0.580947 -9.304363,-2.234411c-2.313652,-1.653464 -3.856086,-4.111316 -4.602425,-7.038393c-0.049756,-0.178753 -0.199024,-0.37985 -0.422926,-0.469226c-0.149268,-0.067032 -0.298536,-0.089376 -0.472682,-0.089376zm-0.074634,0.782044l0,0.022344l0,-0.022344zm4.652181,1.228926l-0.920485,0.268129c0.223902,1.899249 1.517556,3.463336 3.109747,4.513509c1.567312,1.072517 3.408283,1.653464 4.900961,1.474711l0.099512,-0.87142c-3.333649,-0.983141 -5.572666,-2.860046 -7.189735,-5.38493z"/>
 </g>
</svg>
